<svg xmlns="http://www.w3.org/2000/svg" width="23" height="19" fill="none"><path fill="#F6F6F6" d="M5.176 10.285c1.353-.536 2.437-.396 3.254.421.817.817 1.06 2.118.727 3.905-.255 1.327-.816 2.348-1.684 3.062-.842.69-1.825 1.034-2.948 1.034-1.53 0-2.59-.587-3.177-1.761-.587-1.2-.702-2.807-.344-4.824.204-1.097.536-2.207.995-3.33.46-1.123 1.072-2.271 1.837-3.445.766-1.174 1.761-2.195 2.986-3.063A9.821 9.821 0 0 1 10.88.6l-.383 4.058c-1.25.255-2.36.906-3.33 1.952-.97 1.02-1.633 2.246-1.99 3.675Zm11.523 0c1.352-.536 2.437-.396 3.254.421.817.817 1.059 2.118.727 3.905-.255 1.327-.817 2.348-1.684 3.062-.842.69-1.825 1.034-2.948 1.034-1.531 0-2.59-.587-3.177-1.761-.587-1.2-.702-2.807-.345-4.824.204-1.097.536-2.207.995-3.33.46-1.123 1.072-2.271 1.838-3.445s1.761-2.195 2.986-3.063A9.821 9.821 0 0 1 22.403.6l-.383 4.058c-1.25.255-2.36.906-3.33 1.952-.97 1.02-1.634 2.246-1.991 3.675Z"/></svg>