<svg aria-hidden="true" style="position: absolute; width: 0; height: 0; overflow: hidden;" version="1.1" xmlns="http://www.w3.org/2000/svg" xmlns:xlink="http://www.w3.org/1999/xlink">
<defs>
<symbol id="icon-H" viewBox="0 0 43 32">
<path d="M6.933 4.571h-3.2c-0.887 0-1.6 0.764-1.6 1.714v7.429h-1.6c-0.293 0-0.533 0.257-0.533 0.571v3.429c0 0.314 0.24 0.571 0.533 0.571h1.6v7.429c0 0.95 0.713 1.714 1.6 1.714h3.2c0.887 0 1.6-0.764 1.6-1.714v-19.429c0-0.95-0.713-1.714-1.6-1.714zM42.133 13.714h-1.6v-7.429c0-0.95-0.713-1.714-1.6-1.714h-3.2c-0.887 0-1.6 0.764-1.6 1.714v19.429c0 0.95 0.713 1.714 1.6 1.714h3.2c0.887 0 1.6-0.764 1.6-1.714v-7.429h1.6c0.293 0 0.533-0.257 0.533-0.571v-3.429c0-0.314-0.24-0.571-0.533-0.571zM30.4 0h-3.2c-0.887 0-1.6 0.764-1.6 1.714v12h-8.533v-12c0-0.95-0.713-1.714-1.6-1.714h-3.2c-0.887 0-1.6 0.764-1.6 1.714v28.571c0 0.95 0.713 1.714 1.6 1.714h3.2c0.887 0 1.6-0.764 1.6-1.714v-12h8.533v12c0 0.95 0.713 1.714 1.6 1.714h3.2c0.887 0 1.6-0.764 1.6-1.714v-28.571c0-0.95-0.713-1.714-1.6-1.714z"></path>
</symbol>
</defs>
</svg>
